# xmcd CD database file
#
# Track frame offsets:
#	150
#	5662
#	25112
#	42820
#	63840
#	83604
#	100790
#	119575
#	140487
#	156455
#	172807
#	193880
#	212815
#	231257
#
# Disc length: 3305 seconds
#
# Revision: 1
# Processed by: cddbd v1.5.2PL0 Copyright (c) Steve Scherf et al.
# Submitted via: CDex 1.81
#
DISCID=b90ce70e
DTITLE=K-Ci and JoJo - It's Real
DYEAR=1900
DGENRE=R&B
TTITLE0=Intro
TTITLE1=Fee Fue Fie Fum
TTITLE2=I Wanna Make Love To You
TTITLE3=I Wanna Get To Know You
TTITLE4=Hello Darlin'
TTITLE5=How Long Must I Cry
TTITLE6=Makin' Me Say Goodbye
TTITLE7=Tell Me It's Real
TTITLE8=Life
TTITLE9=Girl
TTITLE10=What Am I Gonna Do
TTITLE11=Here He Comes Again
TTITLE12=Momma's Song
TTITLE13=All My Life
EXTD=K Ci and Jo Jo
EXTT0=
EXTT1=
EXTT2=
EXTT3=
EXTT4=
EXTT5=
EXTT6=
EXTT7=
EXTT8=
EXTT9=
EXTT10=
EXTT11=
EXTT12=
EXTT13=
PLAYORDER=
